<svg width="48" height="48" viewBox="0 0 48 48" fill="none" xmlns="http://www.w3.org/2000/svg">
<path d="M34 4H14C8.47715 4 4 8.47715 4 14V34C4 39.5228 8.47715 44 14 44H34C39.5228 44 44 39.5228 44 34V14C44 8.47715 39.5228 4 34 4Z" stroke="white" stroke-width="2" stroke-linecap="round" stroke-linejoin="round"/>
<path d="M32.0004 22.7401C32.2472 24.4046 31.9629 26.1045 31.1879 27.5981C30.4129 29.0917 29.1867 30.3029 27.6836 31.0595C26.1806 31.816 24.4773 32.0793 22.816 31.812C21.1546 31.5447 19.6199 30.7603 18.4301 29.5704C17.2402 28.3806 16.4559 26.8459 16.1885 25.1845C15.9212 23.5232 16.1845 21.8199 16.941 20.3169C17.6976 18.8138 18.9088 17.5876 20.4024 16.8126C21.896 16.0376 23.5959 15.7533 25.2604 16.0001C26.9582 16.2519 28.5301 17.043 29.7438 18.2567C30.9575 19.4704 31.7486 21.0423 32.0004 22.7401Z" stroke="white" stroke-width="2" stroke-linecap="round" stroke-linejoin="round"/>
<path d="M35 13H35.02" stroke="white" stroke-width="2" stroke-linecap="round" stroke-linejoin="round"/>
</svg>
