<svg width="68" height="72" viewBox="0 0 68 50" fill="none" xmlns="http://www.w3.org/2000/svg">
<g opacity="0.3" filter="url(#filter0_f_5455_3034)">
<path d="M31.0002 11.7321C32.8566 10.6603 35.1438 10.6603 37.0002 11.7321L48.3207 18.268C50.1771 19.3398 51.3207 21.3205 51.3207 23.4641V36.5359C51.3207 38.6795 50.1771 40.6603 48.3207 41.7321L37.0002 48.268C35.1438 49.3398 32.8566 49.3398 31.0002 48.268L19.6797 41.7321C17.8233 40.6603 16.6797 38.6795 16.6797 36.5359V23.4641C16.6797 21.3205 17.8233 19.3398 19.6797 18.268L31.0002 11.7321Z" fill="url(#paint0_linear_5455_3034)"/>
</g>
<g opacity="0.4" filter="url(#filter1_f_5455_3034)">
<path d="M31 16.7321C32.8564 15.6603 35.1436 15.6603 37 16.7321L49.1865 23.768C51.0429 24.8398 52.1865 26.8205 52.1865 28.9641V43.0359C52.1865 45.1795 51.0429 47.1603 49.1865 48.2321L37 55.268C35.1436 56.3398 32.8564 56.3398 31 55.268L18.8135 48.2321C16.9571 47.1603 15.8135 45.1795 15.8135 43.0359V28.9641C15.8135 26.8205 16.9571 24.8398 18.8135 23.768L31 16.7321Z" fill="url(#paint1_linear_5455_3034)"/>
</g>
<path d="M31.0004 3.73207C32.8568 2.66027 35.144 2.66027 37.0004 3.73207L51.785 12.268C53.6414 13.3398 54.785 15.3205 54.785 17.4641V34.5359C54.785 36.6795 53.6414 38.6603 51.785 39.7321L37.0004 48.268C35.144 49.3398 32.8568 49.3398 31.0004 48.268L16.2158 39.7321C14.3594 38.6603 13.2158 36.6795 13.2158 34.5359L13.2158 17.4641C13.2158 15.3205 14.3594 13.3398 16.2158 12.268L31.0004 3.73207Z" fill="url(#paint2_linear_5455_3034)"/>
<path d="M27.2502 26.2081L34.1558 14.75V14.7554L34.1574 14.75L41.0619 26.2065L41.0655 26.2082L34.1599 30.2901V30.2889L34.1574 30.2904L34.1558 30.2888V30.2901L27.2502 26.2081Z" fill="#030303"/>
<path d="M34.1558 37.2452V37.25L27.25 27.5186L34.1558 31.5985V31.6005L34.1574 31.5985L41.0673 27.5186L34.1574 37.25L34.1558 37.2452Z" fill="#030303"/>
<defs>
<filter id="filter0_f_5455_3034" x="10.6797" y="4.92822" width="46.6406" height="50.1436" filterUnits="userSpaceOnUse" color-interpolation-filters="sRGB">
<feFlood flood-opacity="0" result="BackgroundImageFix"/>
<feBlend mode="normal" in="SourceGraphic" in2="BackgroundImageFix" result="shape"/>
<feGaussianBlur stdDeviation="3" result="effect1_foregroundBlur_5455_3034"/>
</filter>
<filter id="filter1_f_5455_3034" x="0.813477" y="0.928223" width="66.373" height="70.1436" filterUnits="userSpaceOnUse" color-interpolation-filters="sRGB">
<feFlood flood-opacity="0" result="BackgroundImageFix"/>
<feBlend mode="normal" in="SourceGraphic" in2="BackgroundImageFix" result="shape"/>
<feGaussianBlur stdDeviation="7.5" result="effect1_foregroundBlur_5455_3034"/>
</filter>
<linearGradient id="paint0_linear_5455_3034" x1="7.0683" y1="-33.1103" x2="49.8619" y2="-27.7479" gradientUnits="userSpaceOnUse">
<stop stop-color="#FF8D8D"/>
<stop offset="1" stop-color="#F7FC0E"/>
</linearGradient>
<linearGradient id="paint1_linear_5455_3034" x1="5.72153" y1="-30.4194" x2="50.658" y2="-24.8015" gradientUnits="userSpaceOnUse">
<stop stop-color="#FF8D8D"/>
<stop offset="1" stop-color="#F7FC0E"/>
</linearGradient>
<linearGradient id="paint2_linear_5455_3034" x1="1.68216" y1="-50.3466" x2="53.0472" y2="-43.9619" gradientUnits="userSpaceOnUse">
<stop stop-color="#FF8D8D"/>
<stop offset="1" stop-color="#F7FC0E"/>
</linearGradient>
</defs>
</svg>
