<svg width="40" height="40" viewBox="0 0 40 40" fill="none" xmlns="http://www.w3.org/2000/svg">
<g clip-path="url(#clip0_134181_1292)">
<path d="M0.8225 25.8325C2.07698 29.9336 4.61496 33.5236 8.06283 36.0741C11.5107 38.6246 15.6863 40.0007 19.975 40C31.035 40 40 31.045 40 20C40 8.955 31.035 1.49946e-06 19.9775 1.49946e-06C14.9007 -0.00196246 10.0128 1.9254 6.30364 5.39182C2.59446 8.85824 0.34116 13.6047 0 18.67L0.0075 18.685L10.7675 23.1075C11.738 22.465 12.8873 22.1472 14.05 22.2L18.95 15.09L18.9475 14.99C18.9495 12.9734 19.7513 11.0399 21.177 9.61376C22.6027 8.18758 24.5359 7.38515 26.5525 7.3825C28.5691 7.38515 30.5023 8.18758 31.928 9.61376C33.3537 11.0399 34.1555 12.9734 34.1575 14.99C34.1567 16.0033 33.9538 17.0063 33.5606 17.9402C33.1673 18.8741 32.5917 19.7202 31.8674 20.4289C31.1432 21.1376 30.2848 21.6946 29.3425 22.0674C28.4003 22.4402 27.3931 22.6213 26.38 22.6L19.37 27.6C19.3938 28.5262 19.1856 29.4436 18.7645 30.2688C18.3434 31.094 17.7226 31.8009 16.9587 32.3251C16.1948 32.8493 15.3119 33.1742 14.3904 33.2702C13.469 33.3662 12.5381 33.2304 11.6825 32.875C10.8613 32.5328 10.1346 31.998 9.56366 31.3157C8.99276 30.6334 8.59449 29.8237 8.4025 28.955L0.825 25.8325H0.8225Z" fill="white"/>
<path d="M12.1698 31.7075C13.2114 32.1051 14.3669 32.0813 15.3913 31.6412C16.4156 31.2011 17.2282 30.3793 17.6568 29.3501C18.0854 28.3209 18.0963 27.1652 17.6871 26.1282C17.2778 25.0911 16.4808 24.2542 15.4648 23.795C14.4576 23.3747 13.3274 23.3568 12.3073 23.745L14.8648 24.805C15.2473 24.9642 15.5947 25.1972 15.8871 25.4907C16.1795 25.7842 16.4113 26.1324 16.5692 26.5154C16.727 26.8984 16.8079 27.3088 16.8071 27.7231C16.8064 28.1374 16.7241 28.5475 16.5648 28.93C16.4056 29.3125 16.1726 29.6598 15.8791 29.9523C15.5857 30.2447 15.2375 30.4764 14.8544 30.6343C14.4714 30.7922 14.061 30.873 13.6467 30.8723C13.2324 30.8715 12.8223 30.7892 12.4398 30.63L9.96484 29.605C10.4152 30.5533 11.2007 31.3014 12.1698 31.705V31.7075ZM21.4848 14.99C21.4855 16.3342 22.0195 17.6233 22.9695 18.5743C23.9196 19.5253 25.2081 20.0605 26.5523 20.0625C27.8966 20.0605 29.1851 19.5253 30.1352 18.5743C31.0852 17.6233 31.6192 16.3342 31.6198 14.99C31.6179 13.6466 31.0833 12.3588 30.1334 11.4089C29.1835 10.459 27.8957 9.92447 26.5523 9.92249C25.209 9.92447 23.9212 10.459 22.9713 11.4089C22.0214 12.3588 21.4868 13.6466 21.4848 14.99V14.99ZM26.5598 11.1725C27.0602 11.1728 27.5556 11.2717 28.0177 11.4635C28.4798 11.6552 28.8996 11.9362 29.2532 12.2902C29.6067 12.6442 29.8871 13.0644 30.0783 13.5268C30.2694 13.9891 30.3677 14.4846 30.3673 14.985C30.367 15.4853 30.2681 15.9807 30.0764 16.4428C29.8846 16.9049 29.6037 17.3248 29.2497 17.6783C28.8956 18.0319 28.4754 18.3123 28.0131 18.5034C27.5507 18.6946 27.0552 18.7928 26.5548 18.7925C25.5444 18.7918 24.5755 18.3898 23.8615 17.6748C23.1475 16.9598 22.7467 15.9905 22.7473 14.98C22.748 13.9695 23.1501 13.0007 23.865 12.2866C24.58 11.5726 25.5494 11.1718 26.5598 11.1725V11.1725Z" fill="white"/>
</g>
<defs>
<clipPath id="clip0_134181_1292">
<rect width="40" height="40" fill="white"/>
</clipPath>
</defs>
</svg>
