<svg width="40" height="40" viewBox="0 0 40 40" fill="none" xmlns="http://www.w3.org/2000/svg">
<path d="M20 35C28.2843 35 35 28.2843 35 20C35 11.7157 28.2843 5 20 5C11.7157 5 5 11.7157 5 20C5 28.2843 11.7157 35 20 35Z" stroke="#B91C1C" stroke-width="2" stroke-linecap="round" stroke-linejoin="round"/>
<path d="M33.4687 26.6249L24.9843 21.4062C24.8383 21.3123 24.6725 21.2534 24.4999 21.2343L20.9218 20.7499C20.6549 20.7116 20.3827 20.7629 20.148 20.8958C19.9134 21.0287 19.7294 21.2357 19.6249 21.4843L17.4843 26.2812C17.3837 26.5043 17.3508 26.752 17.3897 26.9937C17.4285 27.2353 17.5375 27.4603 17.7031 27.6405L20.6406 30.8124C20.7734 30.9584 20.8706 31.133 20.9248 31.3227C20.9791 31.5124 20.9887 31.7121 20.9531 31.9062L20.3437 34.9999" stroke="#B91C1C" stroke-width="2" stroke-linecap="round" stroke-linejoin="round"/>
<path d="M10.1562 8.6875L8.7499 12C8.62741 12.2941 8.62183 12.6238 8.73428 12.9219L10.5312 17.7031C10.6014 17.9024 10.7216 18.0803 10.8803 18.2199C11.0389 18.3594 11.2308 18.4558 11.4374 18.5L14.7812 19.2188C14.9667 19.2563 15.141 19.3365 15.2902 19.4532C15.4394 19.5698 15.5593 19.7196 15.6405 19.8906L16.2343 21.125C16.3398 21.3337 16.5004 21.5096 16.6987 21.6335C16.897 21.7574 17.1254 21.8248 17.3593 21.8281H19.4687" stroke="#B91C1C" stroke-width="2" stroke-linecap="round" stroke-linejoin="round"/>
<path d="M23.8281 5.48438L25.2813 8.10938C25.4154 8.35616 25.4637 8.64057 25.4184 8.9178C25.3731 9.19503 25.2369 9.44932 25.0312 9.64063L20.8281 13.4375C20.7578 13.5047 20.679 13.5625 20.5938 13.6094L18.6719 14.6719C18.4887 14.7691 18.2854 14.8226 18.0781 14.8281H14.7344C14.488 14.8294 14.2474 14.9025 14.0421 15.0385C13.8367 15.1745 13.6754 15.3675 13.5781 15.5938L12.2812 18.6719" stroke="#B91C1C" stroke-width="2" stroke-linecap="round" stroke-linejoin="round"/>
</svg>
