<svg width="40" height="40" viewBox="0 0 40 40" fill="none" xmlns="http://www.w3.org/2000/svg">
<path d="M20 20L10.5 12.875C10.3456 12.7577 10.2203 12.6066 10.1336 12.4332C10.0469 12.2598 10.0012 12.0688 10 11.875V6.25C10 5.91848 10.1317 5.60054 10.3661 5.36612C10.6005 5.1317 10.9185 5 11.25 5H28.75C29.0815 5 29.3995 5.1317 29.6339 5.36612C29.8683 5.60054 30 5.91848 30 6.25V11.8125C29.9988 12.0063 29.9531 12.1973 29.8664 12.3707C29.7797 12.5441 29.6544 12.6952 29.5 12.8125L20 20Z" stroke="#B91C1C" stroke-width="2" stroke-linecap="round" stroke-linejoin="round"/>
<path d="M20 20L10.5 27.125C10.3456 27.2423 10.2203 27.3934 10.1336 27.5668C10.0469 27.7402 10.0012 27.9312 10 28.125V33.75C10 34.0815 10.1317 34.3995 10.3661 34.6339C10.6005 34.8683 10.9185 35 11.25 35H28.75C29.0815 35 29.3995 34.8683 29.6339 34.6339C29.8683 34.3995 30 34.0815 30 33.75V28.1875C29.9988 27.9937 29.9531 27.8027 29.8664 27.6293C29.7797 27.4559 29.6544 27.3048 29.5 27.1875L20 20Z" stroke="#B91C1C" stroke-width="2" stroke-linecap="round" stroke-linejoin="round"/>
<path d="M11.6719 13.75H28.2656" stroke="#B91C1C" stroke-width="2" stroke-linecap="round" stroke-linejoin="round"/>
<path d="M20 26.25V20" stroke="#B91C1C" stroke-width="2" stroke-linecap="round" stroke-linejoin="round"/>
</svg>
